HIERARCHY
ROOT hip
{
	OFFSET 0.000000 0.000000 0.000000 
	CHANNELS 6 Xposition Yposition Zposition Xrotation Zrotation Yrotation
	JOINT abdomen
	{
		OFFSET 0.000000 3.402643 0.000000 
		CHANNELS 3 Xrotation Zrotation Yrotation
		JOINT chest
		{
			OFFSET 0.000000 8.438565 -0.680529 
			CHANNELS 3 Xrotation Zrotation Yrotation
			JOINT neck
			{
				OFFSET 0.000000 10.207942 -0.272212 
				CHANNELS 3 Xrotation Zrotation Yrotation
				JOINT head
				{
					OFFSET 0.000000 3.130431 0.000000 
					CHANNELS 3 Xrotation Zrotation Yrotation
					End Site
					{
						OFFSET 0.000000 3.130435 0.000000 
					}
				}
			}
			JOINT lCollar
			{
				OFFSET 3.470700 6.669187 -0.816635 
				CHANNELS 3 Yrotation Zrotation Xrotation
				JOINT lShldr
				{
					OFFSET 3.198488 0.000000 0.000000 
					CHANNELS 3 Zrotation Yrotation Xrotation
					JOINT lForeArm
					{
						OFFSET 10.139888 0.000000 0.000000 
						CHANNELS 3 Yrotation Zrotation Xrotation
						JOINT lHand
						{
							OFFSET 8.370511 0.000000 0.000000 
							CHANNELS 3 Zrotation Yrotation Xrotation
							End Site
							{
								OFFSET 4.083176 0.000000 0.000000 
							}
						}
					}
				}
			}
			JOINT rCollar
			{
				OFFSET -3.470700 6.669187 -0.816635 
				CHANNELS 3 Yrotation Zrotation Xrotation
				JOINT rShldr
				{
					OFFSET -3.198488 0.000000 0.000000 
					CHANNELS 3 Zrotation Yrotation Xrotation
					JOINT rForeArm
					{
						OFFSET -10.139888 0.000000 0.000000 
						CHANNELS 3 Yrotation Zrotation Xrotation
						JOINT rHand
						{
							OFFSET -8.370511 0.000000 0.000000 
							CHANNELS 3 Zrotation Yrotation Xrotation
							End Site
							{
								OFFSET -4.083176 0.000000 0.000000 
							}
						}
					}
				}
			}
		}
	}
	JOINT lThigh
	{
		OFFSET 5.308129 -1.633274 1.361059 
		CHANNELS 3 Xrotation Zrotation Yrotation
		JOINT lShin
		{
			OFFSET -2.041588 -20.007561 0.000000 
			CHANNELS 3 Xrotation Zrotation Yrotation
			JOINT lFoot
			{
				OFFSET 0.000000 -19.190928 -1.224953 
				CHANNELS 3 Xrotation Yrotation Zrotation
				End Site
				{
					OFFSET 0.000000 -2.449906 4.627600 
				}
			}
		}
	}
	JOINT rThigh
	{
		OFFSET -5.308129 -1.633274 1.361059 
		CHANNELS 3 Xrotation Zrotation Yrotation
		JOINT rShin
		{
			OFFSET 2.041588 -20.007561 0.000000 
			CHANNELS 3 Xrotation Zrotation Yrotation
			JOINT rFoot
			{
				OFFSET 0.000000 -19.190928 -1.224953 
				CHANNELS 3 Xrotation Yrotation Zrotation
				End Site
				{
					OFFSET 0.000000 -2.449906 4.627600 
				}
			}
		}
	}
}
MOTION
Frames: 18
Frame Time: 0.033333
0.257749 49.644390 -0.471186 -6.865166 7.279300 -3.769440 0.000000 0.000000 0.000000 11.452363 -3.257209 5.360093 0.111380 -4.990123 -0.382814 -9.639238 -4.788655 -6.977649 16.397350 15.493246 19.608589 -96.933868 -14.047243 -6.068087 -23.068991 3.470306 12.488154 2.993579 10.937090 50.555347 -11.579736 -30.000000 17.623205 63.058403 25.162617 63.422062 18.215014 -12.330276 -40.694973 39.580753 -9.852363 -11.509864 -37.075897 4.568956 14.711334 77.577560 5.763045 -1.815280 -2.543085 7.143703 -13.788931 5.770154 -4.443330 -0.304136 18.587812 0.692920 0.812488 -8.306041 11.077973 21.562901 
0.424661 49.730934 -0.936052 -11.320663 9.182911 -5.747367 0.000000 0.000000 0.000000 17.846907 -4.671655 4.722378 -0.778881 -6.845433 -0.512340 -9.975039 -3.683939 -5.539104 18.441629 14.630486 19.243414 -95.766945 -10.588105 -6.857661 -22.141668 4.238243 16.683640 0.064943 14.812437 49.739208 -8.138844 -30.000000 18.998556 59.309708 32.093040 59.789753 17.502167 -11.974638 -38.055584 40.849426 -8.628779 -11.259145 -47.396721 8.571554 13.744131 62.196796 0.922174 -2.466945 -1.719570 7.708216 -11.451363 10.872132 -7.163362 -1.243197 18.995039 0.415988 0.809206 -9.795265 12.368808 23.276083 
0.498256 49.758545 -1.342724 -14.448687 10.074287 -7.359256 0.000000 0.000000 0.000000 22.878286 -5.629470 4.199728 -1.924859 -8.163605 -0.611814 -10.587946 -2.424708 -4.330141 20.053612 13.497155 19.163742 -94.700111 -8.468185 -7.566540 -19.967369 5.721253 19.270781 -1.216606 19.074219 49.234589 -4.424770 -30.000000 20.983107 55.305450 37.492886 56.212536 15.943269 -10.523206 -37.155426 42.270615 -6.628496 -10.830435 -56.631653 12.993474 12.769434 42.268635 -3.645185 -2.656687 0.850137 9.425376 -12.119946 14.927891 -8.884656 -1.806426 19.096869 0.165289 0.756560 -11.867561 12.963811 26.347139 
0.571582 49.698982 -1.626287 -16.419666 9.706542 -9.323483 0.000000 0.000000 0.000000 26.678801 -5.728870 3.915985 -3.686089 -9.364562 -0.693551 -11.582730 -1.180660 -2.334495 22.010511 12.434883 19.015471 -93.868385 -6.521954 -8.143991 -18.375097 6.282106 19.745285 -0.779176 22.967340 49.423927 -0.040123 -30.000000 23.672632 52.228516 42.158905 53.158230 14.045653 -8.062371 -36.954208 42.940834 -4.642124 -10.279451 -65.448425 17.499821 11.745594 27.833895 -6.304043 -2.437048 3.749678 12.394935 -16.513346 17.455692 -9.460214 -2.022076 19.828373 -0.140715 0.748137 -14.432183 13.806850 30.952070 
0.700767 49.638031 -1.822153 -17.780794 9.482734 -11.337379 0.000000 0.000000 0.000000 29.513458 -6.218368 3.584708 -5.503820 -10.135881 -0.745051 -12.207617 0.107420 -0.312499 23.730442 11.781487 18.821400 -93.231987 -4.364119 -8.645638 -18.612656 5.565519 20.276817 -1.560093 25.830542 49.187378 3.926253 -30.000000 25.000000 50.736557 46.043316 51.041473 12.590773 -6.136965 -34.597645 43.379364 -2.354658 -9.475107 -73.862877 20.886337 10.356879 21.537861 -7.441122 -2.265607 5.097597 15.984130 -22.231031 19.029293 -10.310773 -2.283131 21.130976 -0.498925 0.727605 -16.837612 14.735523 34.871361 
0.862842 49.683987 -2.005193 -18.785686 10.387720 -12.511864 0.000000 0.000000 0.000000 31.419540 -7.605865 3.142086 -6.884268 -10.340897 -0.766033 -12.115933 0.400378 0.459041 24.490870 11.171668 18.893782 -92.450974 -2.977620 -9.207864 -20.486568 4.317289 22.885750 -4.829566 26.762100 47.804348 6.056057 -30.000000 24.996548 51.906456 48.242092 50.957188 11.983373 -5.573032 -31.684132 44.190937 -1.023940 -8.861928 -80.235939 22.486052 8.950265 20.253317 -7.712610 -2.269835 5.527683 16.506338 -24.791979 20.485184 -12.244411 -2.939698 22.013987 -0.619979 0.795389 -18.770208 15.225453 37.345261 
0.946493 49.832531 -2.304357 -18.779079 11.850284 -12.045640 0.000000 0.000000 0.000000 31.831400 -8.709970 2.864413 -7.369293 -10.448285 -0.775653 -12.376402 0.351546 -0.546865 24.189165 10.382643 19.319641 -91.493881 -3.314355 -9.761280 -23.012564 2.166997 25.319483 -5.308455 25.457964 47.806625 6.069681 -30.000000 24.996565 56.219139 47.970264 53.569656 12.271132 -6.527322 -29.569750 45.011974 -0.586311 -8.560013 -82.334251 22.148773 8.188208 21.103144 -7.586230 -2.301567 6.543071 12.349411 -25.554785 21.564472 -14.125886 -3.569012 21.901920 -0.376245 0.843965 -19.858826 14.574986 38.771950 
0.919360 49.941456 -2.749311 -17.230328 12.471752 -10.703883 0.000000 0.000000 0.000000 30.568922 -8.494207 3.020383 -7.583330 -10.506873 -0.775658 -12.677773 0.068330 -1.669921 24.098862 10.248757 19.394125 -91.369530 -4.035731 -9.789412 -25.004084 -0.542079 25.395441 -2.494092 22.819458 49.195847 5.542198 -30.000000 24.992437 61.240864 46.647236 56.946011 12.965841 -7.928208 -27.643078 45.720211 -0.487361 -8.353208 -81.272453 20.895298 8.148307 22.427509 -7.568299 -2.382508 7.737542 9.213058 -27.022362 21.467770 -14.585353 -3.724533 21.076561 0.024220 0.861867 -20.355152 13.422455 39.737652 
0.857425 49.994392 -3.282629 -14.262697 12.314604 -8.926699 0.000000 0.000000 0.000000 27.534285 -7.232537 3.523568 -7.342856 -10.370190 -0.766038 -13.018554 -0.399960 -2.656322 24.088842 10.923610 19.094604 -92.143608 -3.996752 -9.330183 -26.672825 -3.579147 23.657682 0.346968 20.382614 50.421207 4.575861 -30.000000 24.993975 65.550072 44.761337 60.006107 13.580758 -9.431011 -24.625767 45.936527 -0.041176 -7.991226 -77.200020 18.698320 8.669976 23.590221 -7.582657 -2.432371 8.555403 9.202819 -26.642179 20.324537 -14.244024 -3.588196 19.654408 0.857795 0.924975 -20.570587 12.384931 40.015808 
0.781380 50.001328 -3.711813 -10.240036 11.439090 -7.422537 0.000000 0.000000 0.000000 22.627222 -5.346421 4.285375 -6.227894 -10.028469 -0.745039 -12.983370 -0.945740 -3.252477 24.077717 11.918656 18.672256 -92.915245 -2.541726 -8.945151 -28.092344 -6.021345 23.444469 0.444006 19.636621 50.605736 3.298017 -30.000000 25.000000 68.310944 42.619072 62.183285 13.801934 -10.626540 -21.552349 45.229210 0.389033 -7.644669 -70.809174 16.220413 9.790970 24.597311 -7.405072 -2.457108 8.479961 10.999532 -23.755676 18.397762 -13.193295 -3.219350 17.719213 1.619271 0.910204 -20.044184 12.045670 38.270077 
0.682336 50.001244 -3.913660 -5.707189 9.957668 -6.434530 0.000000 0.000000 0.000000 16.236067 -3.073438 5.163474 -4.074132 -9.442661 -0.703190 -12.845857 -1.627581 -3.634396 23.724318 12.465004 18.527039 -92.999435 -0.242575 -9.032994 -28.993828 -7.290563 24.919300 -0.848700 20.267088 50.317177 1.500953 -30.000000 24.816751 69.139351 40.107231 63.312958 13.952642 -11.306327 -19.672495 43.766026 0.851614 -7.460556 -63.047207 14.024005 11.329358 25.925373 -7.130229 -2.502216 8.024428 12.149329 -21.529215 16.282661 -11.353212 -2.628109 15.381327 1.910307 0.849511 -19.468189 11.853243 36.511101 
0.661366 50.003407 -3.746027 -2.029050 8.433427 -5.823809 0.000000 0.000000 0.000000 9.804255 -0.845006 5.967442 -1.004990 -8.690852 -0.653362 -13.176762 -2.503117 -4.174039 22.500132 12.536059 18.836969 -92.701202 2.592165 -9.429276 -29.557035 -7.204148 27.271957 -2.517501 21.979179 49.805511 -0.954358 -29.456421 23.624893 67.682533 36.754990 63.340416 14.900324 -11.660223 -20.137352 41.726376 0.651332 -7.635118 -53.077896 11.294981 13.146650 27.417986 -6.182726 -2.368773 6.289387 11.898734 -19.557800 15.836189 -9.655972 -2.062130 12.687492 2.085556 0.638758 -18.940453 11.154700 35.821663 
0.807497 49.939552 -3.246327 -0.346454 7.507020 -6.067217 0.000000 0.000000 0.000000 5.303078 0.776252 6.485101 1.586087 -8.368639 -0.632558 -13.630839 -2.795788 -4.038397 21.732500 12.178067 19.182837 -92.145859 5.446430 -10.034204 -29.769835 -6.802584 30.096174 -4.284889 23.293774 49.121330 -2.575479 -26.949299 22.980095 66.960312 34.027962 63.602230 16.119942 -12.281416 -21.796747 39.720673 0.133236 -7.906798 -41.616043 8.044563 14.831947 28.253317 -4.888282 -2.130371 3.204283 10.922744 -16.917439 17.360540 -9.237145 -1.941259 10.857183 2.411082 0.550068 -18.377647 10.799327 36.337315 
1.050930 49.789337 -2.599989 0.908847 6.350249 -6.150159 0.000000 0.000000 0.000000 1.663118 2.646118 7.009779 3.379169 -8.153823 -0.622865 -13.592041 -3.010491 -3.931638 21.544125 12.005520 19.304005 -91.882446 7.854666 -10.427789 -29.823919 -6.508842 32.730560 -5.251049 23.869204 48.744526 -3.904711 -25.270603 22.505762 66.005264 32.279015 63.478699 17.803764 -14.481502 -20.398964 39.859451 -0.930264 -8.111162 -30.928156 4.658901 15.811200 27.974651 -3.859056 -1.870322 0.367564 9.788861 -15.467168 19.255457 -8.993353 -1.862923 10.034281 2.839981 0.579846 -17.641098 10.391926 37.611988 
1.199013 49.571659 -1.927393 2.433183 4.206824 -5.815902 0.000000 0.000000 0.000000 -1.533890 5.033428 7.627304 4.224074 -7.411745 -0.571752 -13.381282 -3.358231 -4.617461 22.091143 12.320094 19.025980 -91.859406 9.251657 -10.596717 -29.635801 -6.307317 34.199829 -5.358195 24.186264 48.697861 -5.142775 -23.489853 22.155546 64.864990 32.999168 62.668243 18.638590 -16.151766 -16.264620 41.033245 -1.716046 -8.183841 -22.052349 2.662091 16.514782 25.978529 -3.497057 -1.682992 -1.852131 8.270145 -14.338773 20.784306 -7.244193 -1.335057 9.959991 2.352958 0.463484 -16.171587 9.887633 39.119347 
1.206973 49.346767 -1.383092 3.645654 1.858106 -5.012191 0.000000 0.000000 0.000000 -3.408795 6.826817 8.075280 3.919759 -6.269312 -0.482052 -13.567727 -4.095863 -6.354420 23.588461 12.800598 18.415195 -91.662346 8.912391 -10.701059 -28.992237 -6.405770 34.031048 -4.209673 23.977137 49.141346 -5.535813 -22.017038 22.158875 63.916897 35.274391 61.595459 19.055281 -16.823671 -14.056764 41.694248 -2.958427 -8.397034 -16.347212 2.412033 17.048151 24.166763 -3.539498 -1.610319 -2.770405 5.524396 -11.194488 21.011719 -4.569602 -0.516662 12.553731 0.790549 0.317432 -14.252812 9.352380 40.378399 
1.067379 49.165871 -1.035112 4.146586 -0.340845 -4.277442 0.000000 0.000000 0.000000 -3.712279 7.885717 8.331472 2.940521 -5.458837 -0.422662 -13.974752 -4.191803 -7.569204 26.094019 13.266766 17.475674 -91.529655 7.208822 -10.605063 -28.435389 -6.490094 32.218559 -2.433911 23.237316 49.754402 -4.575198 -21.395792 22.611897 63.758621 38.467804 60.705349 18.796364 -16.910528 -14.180167 41.788307 -4.652925 -8.726459 -13.823749 4.127468 17.804756 26.084610 -4.024291 -1.831679 -3.733296 1.920455 -5.873179 17.924540 -1.171479 0.535940 21.528616 -2.180942 0.443323 -12.546018 8.139276 41.092674 
0.816696 49.102356 -0.879078 4.219075 -2.384571 -4.691965 0.000000 0.000000 0.000000 -3.197795 8.414830 8.451658 2.265831 -4.667876 -0.363309 -14.227485 -3.352612 -7.161268 29.092609 13.926388 16.209812 -91.505173 5.243250 -10.443764 -28.607258 -7.017799 28.029196 -0.715869 22.302320 50.281013 -1.850503 -21.572329 23.653353 64.141045 41.714535 60.055626 18.255873 -17.202097 -14.617520 41.765457 -6.345496 -9.068616 -12.572515 7.219857 18.893826 29.899071 -5.025229 -2.255526 -5.219790 -0.683333 -1.124382 10.390358 2.783425 1.731289 36.354977 -6.118359 0.955805 -12.168257 5.765637 40.744915 
